<svg width="128" height="128" viewBox="0 0 128 128" fill="none" xmlns="http://www.w3.org/2000/svg">
<rect width="128" height="128" rx="30" fill="#FFECC3"/>
<path d="M33.8 94.76C27.4267 94.76 21.5067 93.8933 16.04 92.16V81.28C18.6 82.16 21.52 82.8533 24.8 83.36C28.08 83.84 31.1067 84.08 33.88 84.08C37.9067 84.08 40.8 83.5067 42.56 82.36C44.32 81.1867 45.2 79.4667 45.2 77.2C45.2 75.9467 44.9333 74.9067 44.4 74.08C43.8667 73.2533 42.96 72.5467 41.68 71.96C40.4267 71.3467 38.6533 70.7733 36.36 70.24L31.72 69.24C25.8267 67.96 21.5067 65.9333 18.76 63.16C16.0133 60.36 14.64 56.6667 14.64 52.08C14.64 46.2933 16.8267 41.84 21.2 38.72C25.5733 35.6 32.04 34.04 40.6 34.04C43.4 34.04 46.08 34.2 48.64 34.52C51.2 34.84 53.52 35.28 55.6 35.84V46.72C53.6 46.1067 51.3067 45.6267 48.72 45.28C46.16 44.9067 43.6133 44.72 41.08 44.72C36.44 44.72 33.12 45.3067 31.12 46.48C29.12 47.6533 28.12 49.3333 28.12 51.52C28.12 52.72 28.3467 53.72 28.8 54.52C29.28 55.2933 30.0667 55.9733 31.16 56.56C32.28 57.12 33.84 57.64 35.84 58.12L40.52 59.12C46.8933 60.5067 51.5067 62.6 54.36 65.4C57.24 68.2 58.68 71.88 58.68 76.44C58.68 80.2267 57.68 83.4933 55.68 86.24C53.7067 88.9867 50.8533 91.0933 47.12 92.56C43.3867 94.0267 38.9467 94.76 33.8 94.76ZM103.737 63.44C107.257 64.1867 110.004 65.7333 111.977 68.08C113.95 70.4267 114.937 73.4933 114.937 77.28C114.937 81.0667 113.95 84.24 111.977 86.8C110.03 89.3333 106.817 91.28 102.337 92.64C97.8569 94 91.9235 94.68 84.5369 94.68C81.9502 94.68 79.0435 94.5733 75.8169 94.36C72.6169 94.1467 69.6969 93.8667 67.0569 93.52V36.32C69.9902 35.6533 73.2435 35.12 76.8169 34.72C80.4169 34.2933 83.8702 34.08 87.1769 34.08C96.2702 34.08 102.897 35.4667 107.057 38.24C111.244 40.9867 113.337 45.1333 113.337 50.68C113.337 53.8 112.484 56.5067 110.777 58.8C109.097 61.0667 106.75 62.6133 103.737 63.44ZM88.7369 43.68C85.9902 43.68 83.2169 43.9333 80.4169 44.44V58.84H89.5769C93.4969 58.84 96.2969 58.2267 97.9769 57C99.6835 55.7467 100.537 53.8267 100.537 51.24C100.537 49.4533 100.15 48.0133 99.3769 46.92C98.6302 45.8267 97.3902 45.0133 95.6569 44.48C93.9502 43.9467 91.6435 43.68 88.7369 43.68ZM88.1369 85.08C91.7635 85.08 94.6169 84.7867 96.6969 84.2C98.8035 83.5867 100.284 82.68 101.137 81.48C102.017 80.28 102.457 78.7333 102.457 76.84C102.457 73.9867 101.564 71.9067 99.7769 70.6C97.9902 69.2933 95.0435 68.64 90.9369 68.64H80.4169V84.68C82.7102 84.9467 85.2835 85.08 88.1369 85.08Z" fill="#FD613F"/>
</svg>
