<svg width="273" height="272" viewBox="0 0 273 272" fill="none" xmlns="http://www.w3.org/2000/svg">
<g clip-path="url(#clip0_1300_2)">
<rect width="273" height="272" rx="30" fill="#FCBE5A"/>
<path d="M92.2692 106.99C73.5175 84.9966 65.4019 130.539 99 132L92.2692 106.99Z" fill="#FFD1B5"/>
<path d="M180 130C212.135 128.539 204.378 82.9965 186.435 104.99L180 130Z" fill="#FFD1B5"/>
<path d="M189.158 137.71C190.143 134.511 191.72 100.964 190.457 102.312C189.452 91.9841 188.034 78.8231 184.585 70.1135C179.519 57.3186 161.858 54.3511 147.411 52.5784C131.131 50.5744 123.996 53.9273 109.45 60.3246C100.461 64.2748 90.036 70.3062 88.065 85.4132C87.5916 89.0166 89.8574 99.1907 89.957 107.958C90.0747 116.726 94.8444 142.181 94.8444 142.181C94.8444 142.181 97.8992 167.405 110.534 173.359C111.401 181.932 109.39 189.969 107.596 201.723C105.606 214.748 91.6319 218.796 91.6319 218.796C91.6319 218.796 125.178 254 144.987 254C163.495 254 193 219.932 193 219.932C193 219.932 183.027 216.039 180.09 203.033C177.784 192.743 174.768 180.893 174.395 170.969C183.343 167.405 184.663 153.608 189.158 137.691V137.71Z" fill="#FFD1B5"/>
<path d="M190.5 127.5C187.023 158.12 182.991 198.353 138.249 197.997C97.8398 197.648 87.8522 116.698 87 109L92.5 105.5C93.3838 114.275 95.425 121.973 97.5041 130.95C99.5436 136.697 105.837 153.724 112.246 149.481C116.095 146.955 123.083 140.11 127.162 137.911C137.497 132.358 150.162 135.655 159.322 142.231C165.386 144.043 171.853 145.509 177.915 142.771C180.089 141.787 180.398 140.707 182.495 136.523C184.948 126.679 186.676 113.316 186.5 102.5C188.259 103.281 191.31 104.889 191.31 104.889C191.411 108.827 191.348 113.35 191.31 117.105C191.291 120.287 190.692 124.01 190.5 127.5Z" fill="#9A6748"/>
<path d="M197 77.4998C197.805 74.278 198.297 65.3693 193.64 64.1352C196.335 62.3418 199.621 58 199 53.5C197 39 185 35.5967 172.5 30C144.5 22.4999 133.438 32.2222 120.099 35.5967C107.705 35.3459 95.8867 38.759 89.902 46.7035C88.6126 48.4197 86.6298 51.9485 84.5903 56.3642C83.0002 61.4998 81.8109 62.5117 80.0011 66.6576C76.9222 73.7537 79 80.9998 79 80.9998C79 80.9998 80.4042 90.6912 80.5002 90.9998C81.3476 96.8039 83.4013 98.5272 84.5903 101.5C85.5903 104 87.2511 108.414 87.0003 109C88.9477 108.09 91.5003 107.5 92.5003 105.5C92.0772 100.178 92.2889 91.5553 93.2512 86.6768L93.2309 86.6576C96.0219 76.5727 99.9672 66.7384 112.477 64.1352C126.643 61.1849 139.191 64.733 151.914 69.3994C158.823 73.333 168.677 75.0879 173.874 71.5205C174.239 72.0218 174.643 72.4847 175.009 72.986C175.164 73.4102 175.299 73.8537 175.453 74.278C175.605 77.6525 177.203 81.644 177.859 84.3822C179.167 89.8006 181.805 91.2755 185 95.9998C185.75 97.1374 186.5 101.5 186.5 102.5C188.085 103.443 189.453 104.382 191.5 105C191.5 98.5619 194 92.4998 195 87.9998C196 83.4998 195 85.4998 197 77.4998Z" fill="#909090"/>
<path d="M151 135.512C151 135.512 143.089 144.493 135.372 139.477C122.316 130.991 133.109 121.077 134.695 118.401C136.282 115.724 133.787 107 133.787 107" fill="#FFD1B5"/>
<path d="M150 136.5C146.532 140.926 140 142.5 134.519 139.602C132.944 138.767 130.711 136.918 131 135C131.66 130.615 132.199 129.434 133.238 126.324C134.224 124.218 136.286 118.068 136.499 117C137.003 113.777 138.242 108.222 137.72 105C138.863 108.203 138.011 113.739 137.72 117.213C137.642 118.417 135.481 123.847 134.519 127C133.17 131.427 132.49 133.779 132.49 134.779C132.634 136.644 135.403 138.603 139.258 139.457C143.539 140.137 147.743 137.218 150.959 134.5L150 136.5Z" fill="#4B4B4B"/>
<path d="M125.5 96.2433C125.5 96.2433 117.666 95.696 113.165 96.2431C108.662 96.7903 106 97.9793 106 97.9793" stroke="#9A6648" stroke-width="4" stroke-miterlimit="10" stroke-linecap="round"/>
<path d="M258 272L244.38 282H32.3335L18 272.197" stroke="white" stroke-width="2.12" stroke-linecap="round" stroke-linejoin="round"/>
<path d="M243.467 280H32.5485C29.0707 280 12.2698 155.731 18.2911 149.417C24.3125 143.104 251.704 141.339 257.708 149.417C263.729 157.495 246.946 280 243.45 280H243.467Z" fill="#E5E5E5"/>
<path d="M18 149.395C24.0272 143.107 251.641 141.349 257.65 149.395C262.76 156.218 252.263 249.345 244.522 277" stroke="#F5F5F5" stroke-width="2.12" stroke-linecap="round" stroke-linejoin="round"/>
<path d="M133.624 231.86C137.982 233.834 143.295 233.111 147.419 230.714C150.12 229.145 152.408 226.888 154.01 224.244C154.532 223.363 155 222.411 155 221.388C155 220.154 154.028 219.221 153.524 218.092C149.886 210.054 143.061 208.856 131.229 214.461C123.81 217.969 127.141 228.933 133.624 231.86Z" fill="white"/>
<path d="M116.999 115C119.761 115 122 112.761 122 110C122 107.239 119.761 105 116.999 105C114.239 105 112 107.239 112 110C112 112.761 114.239 115 116.999 115Z" fill="#2D2D2D"/>
<path d="M152 96.3646C152 96.3646 160.055 95.544 164.858 96.3647C169.66 97.1696 172.5 98.9689 172.5 98.9689" stroke="#9A6648" stroke-width="4" stroke-miterlimit="10" stroke-linecap="round"/>
<path d="M161.001 114C163.761 114 166 111.761 166 109C166 106.239 163.761 104 161.001 104C158.239 104 156 106.239 156 109C156 111.761 158.239 114 161.001 114Z" fill="#2D2D2D"/>
<path d="M258 149.395C251.973 143.107 24.3593 141.349 18.3498 149.395C13.2403 156.218 23.7366 249.345 31.4781 277" stroke="#F5F5F5" stroke-width="2.12" stroke-linecap="round" stroke-linejoin="round"/>
</g>
<defs>
<clipPath id="clip0_1300_2">
<rect width="273" height="272" rx="30" fill="white"/>
</clipPath>
</defs>
</svg>
