<svg width="273" height="272" fill="none" xmlns="http://www.w3.org/2000/svg"><g clip-path="url('#clip0_1300_2')"><path fill="#FCBE5A" d="M-.996 0H273v272H-.996z"/><path d="M92.27 106.99C73.517 84.997 65.401 130.539 99 132l-6.73-25.01ZM180 130c32.135-1.461 24.378-47.004 6.435-25.01L180 130Z" fill="#FFD1B5"/><path d="M189.158 137.71c.985-3.199 2.562-36.746 1.299-35.398-1.005-10.328-2.423-23.489-5.872-32.198-5.066-12.795-22.727-15.763-37.174-17.536-16.28-2.004-23.415 1.35-37.961 7.747-8.989 3.95-19.414 9.981-21.385 25.088-.473 3.604 1.792 13.778 1.892 22.545.118 8.768 4.887 34.223 4.887 34.223s3.055 25.224 15.69 31.178c.867 8.573-1.144 16.61-2.938 28.364-1.99 13.025-15.964 17.073-15.964 17.073S125.178 254 144.987 254C163.495 254 193 219.932 193 219.932s-9.973-3.893-12.91-16.899c-2.306-10.29-5.322-22.14-5.695-32.064 8.948-3.564 10.268-17.361 14.763-33.278v.019Z" fill="#FFD1B5"/><path d="M190.5 127.5c-3.477 30.62-7.509 70.853-52.251 70.497C97.839 197.648 87.852 116.698 87 109l5.5-3.5c.884 8.775 2.925 16.473 5.004 25.45 2.04 5.747 8.333 22.774 14.742 18.531 3.849-2.526 10.837-9.371 14.916-11.57 10.335-5.553 23-2.256 32.16 4.32 6.064 1.812 12.531 3.278 18.593.54 2.174-.984 2.483-2.064 4.58-6.248 2.453-9.844 4.181-23.207 4.005-34.023 1.759.781 4.81 2.389 4.81 2.389.101 3.938.038 8.461 0 12.216-.019 3.182-.618 6.905-.81 10.395Z" fill="#9A6748"/><path d="M197 77.5c.805-3.222 1.297-12.13-3.36-13.365C196.335 62.342 199.621 58 199 53.5 197 39 185 35.597 172.5 30c-28-7.5-39.062 2.222-52.401 5.597-12.394-.251-24.212 3.162-30.197 11.106-1.29 1.717-3.272 5.245-5.312 9.661-1.59 5.136-2.78 6.148-4.589 10.294C76.922 73.754 79 81 79 81s1.404 9.691 1.5 10c.848 5.804 2.901 7.527 4.09 10.5 1 2.5 2.661 6.914 2.41 7.5 1.948-.91 4.5-1.5 5.5-3.5-.423-5.322-.211-13.945.751-18.823l-.02-.02c2.79-10.084 6.736-19.919 19.246-22.522 14.166-2.95 26.714.598 39.437 5.264 6.909 3.934 16.763 5.689 21.96 2.121.365.502.769.965 1.135 1.466.155.424.29.868.444 1.292.152 3.374 1.75 7.366 2.406 10.104 1.308 5.419 3.946 6.893 7.141 11.618.75 1.137 1.5 5.5 1.5 6.5 1.585.943 2.953 1.882 5 2.5 0-6.438 2.5-12.5 3.5-17s0-2.5 2-10.5Z" fill="#909090"/><path d="M151 135.512s-7.911 8.981-15.628 3.965c-13.056-8.486-2.263-18.4-.677-21.076 1.587-2.677-.908-11.401-.908-11.401" fill="#FFD1B5"/><path d="M150 136.5c-3.468 4.426-10 6-15.481 3.102-1.575-.835-3.808-2.684-3.519-4.602.66-4.385 1.199-5.566 2.238-8.676.986-2.106 3.048-8.256 3.261-9.324.504-3.223 1.743-8.778 1.221-12 1.143 3.203.291 8.739 0 12.213-.078 1.204-2.239 6.634-3.201 9.787-1.349 4.427-2.029 6.779-2.029 7.779.144 1.865 2.913 3.824 6.768 4.678 4.281.68 8.485-2.239 11.701-4.957l-.959 2Z" fill="#4B4B4B"/><path d="M125.5 96.243s-7.834-.547-12.335 0C108.662 96.79 106 97.98 106 97.98" stroke="#9A6648" stroke-width="4" stroke-miterlimit="10" stroke-linecap="round"/><path d="m258 272-13.62 10H32.334L18 272.197" stroke="#fff" stroke-width="2.12" stroke-linecap="round" stroke-linejoin="round"/><path d="M243.467 280H32.548c-3.477 0-20.278-124.269-14.257-130.583 6.021-6.313 233.413-8.078 239.417 0C263.729 157.495 246.946 280 243.45 280h.017Z" fill="#E5E5E5"/><path d="M18 149.395c6.027-6.288 233.641-8.046 239.65 0 5.11 6.823-5.387 99.95-13.128 127.605" stroke="#F5F5F5" stroke-width="2.12" stroke-linecap="round" stroke-linejoin="round"/><path d="M133.624 231.86c4.358 1.974 9.671 1.251 13.795-1.146a18.787 18.787 0 0 0 6.591-6.47c.522-.881.99-1.833.99-2.856 0-1.234-.972-2.167-1.476-3.296-3.638-8.038-10.463-9.236-22.295-3.631-7.419 3.508-4.088 14.472 2.395 17.399Z" fill="#fff"/><path d="M116.999 115a5 5 0 1 0 0-10.002A5 5 0 0 0 117 115Z" fill="#2D2D2D"/><path d="M152 96.365s8.055-.821 12.858 0c4.802.805 7.642 2.604 7.642 2.604" stroke="#9A6648" stroke-width="4" stroke-miterlimit="10" stroke-linecap="round"/><path d="M161.001 114a5 5 0 1 0-.003-10 5 5 0 0 0 .003 10Z" fill="#2D2D2D"/><path d="M258 149.395c-6.027-6.288-233.64-8.046-239.65 0-5.11 6.823 5.387 99.95 13.128 127.605" stroke="#F5F5F5" stroke-width="2.12" stroke-linecap="round" stroke-linejoin="round"/></g><defs><clipPath id="clip0_1300_2"><rect width="273" height="272" rx="30" fill="#fff"/></clipPath></defs></svg>